<svg xmlns="http://www.w3.org/2000/svg" width="70" height="46" viewBox="0 0 70 46">
    <g fill="none" fill-rule="nonzero">
        <rect width="62" height="40" y="6" fill="#F8F8F8" rx="4"/>
        <path fill="#000" d="M66.725 0H8.275C6.469 0 5 1.443 5 3.216v34.568C5 39.557 6.469 41 8.275 41h58.45C68.531 41 70 39.557 70 37.784V3.216C70 1.443 68.531 0 66.725 0zM37.461 2.411h28.033L37.5 23.711 9.505 2.411h27.956zm30.083 35.373a.813.813 0 0 1-.819.804H8.274a.812.812 0 0 1-.818-.804V4.116l21.958 16.707-15.22 11.601.01.01c-.241.238-.39.566-.39.928 0 .73.6 1.32 1.342 1.32.369 0 .703-.147.945-.383l.002.002 15.46-11.842 4.634 3.526c.347.302.8.49 1.302.49.503 0 .955-.19 1.302-.49l4.636-3.527 15.46 11.843.001-.002c.243.236.577.383.945.383a1.33 1.33 0 0 0 1.343-1.32 1.3 1.3 0 0 0-.39-.928l.012-.01-15.223-11.6 21.96-16.708v33.668z"/>
    </g>
</svg>
