<svg xmlns="http://www.w3.org/2000/svg" width="44" height="44" viewBox="0 0 44 44">
    <path fill="#FFF" fill-rule="nonzero" d="M15.251 20.916a.535.535 0 0 0 .104.012h.323c.208 0 .406-.03.595-.087.188-.058.354-.142.496-.254a1.22 1.22 0 0 0 .34-.421c.085-.17.127-.362.127-.577 0-.439-.138-.768-.415-.987-.277-.22-.623-.329-1.039-.329-.261 0-.49.048-.686.144a1.376 1.376 0 0 0-.485.387c-.127.162-.221.35-.283.566a2.467 2.467 0 0 0-.092.68h-.981c.015-.392.079-.75.19-1.073.112-.323.271-.6.48-.83a2.15 2.15 0 0 1 .778-.543 2.77 2.77 0 0 1 1.08-.196c.353 0 .682.044.986.132.304.089.567.222.79.398.224.177.399.404.526.681s.19.604.19.981c0 .37-.108.697-.323.981-.215.285-.485.5-.808.647v.023c.5.107.871.342 1.114.704.242.361.363.788.363 1.28 0 .409-.075.768-.225 1.08-.15.311-.352.571-.606.779a2.576 2.576 0 0 1-.894.467 3.737 3.737 0 0 1-1.09.156 3.49 3.49 0 0 1-1.132-.173 2.324 2.324 0 0 1-.865-.514 2.247 2.247 0 0 1-.548-.836 2.986 2.986 0 0 1-.18-1.131h.982c.015.53.169.963.461 1.298.293.335.72.502 1.281.502.239 0 .466-.036.681-.11.216-.073.404-.177.566-.311.161-.135.29-.3.386-.496.097-.197.145-.418.145-.664 0-.254-.046-.479-.139-.675a1.497 1.497 0 0 0-.37-.496 1.488 1.488 0 0 0-.547-.3 2.315 2.315 0 0 0-.687-.099 4.75 4.75 0 0 0-.589.035v-.83zm8.68-1.42c-.047-.369-.19-.665-.428-.888-.238-.223-.554-.335-.946-.335-.416 0-.75.102-1.004.306a2.086 2.086 0 0 0-.595.773c-.142.312-.24.648-.294 1.01a8.29 8.29 0 0 0-.092 1.016l.023.023c.23-.377.517-.65.86-.82.342-.169.736-.254 1.183-.254.392 0 .744.068 1.056.202.311.135.573.322.784.56.212.239.376.52.49.843a3.1 3.1 0 0 1 .174 1.05c0 .3-.046.612-.138.935a2.51 2.51 0 0 1-.456.883 2.437 2.437 0 0 1-.843.657c-.35.174-.783.26-1.298.26-.608 0-1.097-.123-1.466-.37a2.52 2.52 0 0 1-.854-.946 3.922 3.922 0 0 1-.398-1.27 9.546 9.546 0 0 1-.098-1.338c0-.561.048-1.106.144-1.633.096-.527.26-.994.49-1.402.231-.408.54-.735.924-.981.385-.246.87-.37 1.454-.37.677 0 1.216.18 1.616.537.4.358.63.875.692 1.553h-.98zm-1.478 1.697c-.277 0-.52.048-.727.144a1.592 1.592 0 0 0-.86.981c-.073.227-.11.468-.11.722 0 .254.039.492.116.715a1.7 1.7 0 0 0 .329.577c.142.162.32.29.53.387.212.096.453.144.722.144.27 0 .506-.048.71-.144.204-.096.375-.23.513-.398a1.82 1.82 0 0 0 .318-.583c.073-.22.11-.448.11-.687 0-.254-.033-.494-.099-.721a1.59 1.59 0 0 0-.306-.589 1.535 1.535 0 0 0-.519-.398c-.208-.1-.45-.15-.727-.15zm4.64.37c0 .307.01.651.028 1.032.02.381.081.739.185 1.074.104.334.271.617.502.848.23.23.554.346.97.346.415 0 .738-.115.969-.346.23-.231.398-.514.502-.848.104-.335.165-.693.185-1.074.019-.38.028-.725.028-1.033 0-.2-.001-.42-.005-.663a5.786 5.786 0 0 0-.208-1.437 1.881 1.881 0 0 0-.289-.606 1.487 1.487 0 0 0-.479-.421 1.422 1.422 0 0 0-.704-.162c-.277 0-.511.054-.704.162a1.487 1.487 0 0 0-.479.421 1.881 1.881 0 0 0-.288.606 5.786 5.786 0 0 0-.208 1.437 42.09 42.09 0 0 0-.006.663zm-1.04.01c0-.3.008-.61.024-.934.015-.323.054-.639.115-.946.062-.308.15-.6.266-.877.115-.277.273-.52.473-.727.2-.208.452-.374.756-.497s.667-.184 1.09-.184c.424 0 .787.061 1.091.184.304.123.556.289.756.497.2.207.358.45.473.727.116.277.204.569.266.877.061.307.1.623.115.946a19.672 19.672 0 0 1 0 1.87 6.362 6.362 0 0 1-.115.946 4.5 4.5 0 0 1-.266.871 2.346 2.346 0 0 1-.473.722c-.2.207-.45.371-.75.49-.3.12-.666.18-1.097.18-.423 0-.786-.06-1.09-.18a2.092 2.092 0 0 1-.756-.49 2.346 2.346 0 0 1-.473-.722 4.5 4.5 0 0 1-.266-.87 6.362 6.362 0 0 1-.115-.947 19.672 19.672 0 0 1-.023-.935zM22 0c12.13 0 22 9.87 22 22s-9.87 22-22 22S0 34.13 0 22 9.87 0 22 0zm0 33.071c3.537 0 6.873-.458 9.805-1.266.808-2.932 1.266-6.268 1.266-9.805s-.458-6.873-1.266-9.805c-2.932-.808-6.268-1.266-9.805-1.266s-6.873.458-9.805 1.266c-.808 2.932-1.266 6.268-1.266 9.805s.458 6.873 1.266 9.805c2.932.808 6.268 1.266 9.805 1.266zm9.522-.3c-2.933.76-6.17 1.164-9.522 1.164-3.352 0-6.588-.403-9.522-1.164 1.932 6.2 5.477 10.365 9.522 10.365s7.59-4.164 9.522-10.365zm-20.293-1.249c-.76-2.933-1.164-6.17-1.164-9.522 0-3.352.404-6.589 1.164-9.522C5.029 14.41.864 17.955.864 22s4.164 7.59 10.365 9.522zm1.249-20.293c2.934-.76 6.17-1.164 9.522-1.164 3.352 0 6.589.403 9.522 1.164C29.59 5.029 26.045.864 22 .864s-7.59 4.164-9.522 10.365zM33.935 22c0 3.352-.403 6.589-1.164 9.522 6.2-1.932 10.365-5.477 10.365-9.522s-4.164-7.59-10.365-9.522c.76 2.933 1.164 6.17 1.164 9.522zm8.82-3.995c-1.624-8.457-8.303-15.136-16.76-16.76 1.69 1.092 3.232 2.885 4.52 5.3.795 1.491 1.459 3.16 1.986 4.954 1.794.527 3.463 1.191 4.953 1.986 2.416 1.288 4.209 2.83 5.302 4.52zm-24.75-16.76C9.548 2.868 2.869 9.547 1.245 18.004c1.092-1.69 2.885-3.232 5.3-4.52 1.491-.795 3.16-1.459 4.954-1.986.527-1.794 1.191-3.463 1.986-4.953 1.288-2.416 2.83-4.209 4.52-5.302zm-16.76 24.75c1.624 8.457 8.303 15.136 16.76 16.76-1.69-1.092-3.232-2.885-4.52-5.3-.795-1.491-1.459-3.16-1.986-4.954-1.794-.527-3.463-1.191-4.953-1.986-2.416-1.288-4.209-2.83-5.302-4.52zm24.75 16.76c8.457-1.624 15.136-8.303 16.76-16.76-1.092 1.69-2.885 3.232-5.3 4.52-1.491.795-3.16 1.459-4.954 1.986-.527 1.794-1.191 3.463-1.986 4.953-1.288 2.416-2.83 4.209-4.52 5.302z"/>
</svg>
