<svg xmlns="http://www.w3.org/2000/svg" width="18" height="13" viewBox="0 0 18 13">
    <path fill="#FFF" fill-rule="nonzero" d="M15.812.765H1.932c-.641 0-1.16.515-1.16 1.15v8.944c0 .635.519 1.15 1.16 1.15h13.88c.64 0 1.16-.515 1.16-1.15V1.915c0-.635-.52-1.15-1.16-1.15zm0-.765c1.065 0 1.931.859 1.931 1.915v8.944a1.925 1.925 0 0 1-1.931 1.914H1.932A1.925 1.925 0 0 1 0 10.86V1.915C0 .859.866 0 1.931 0h13.88zM9.2 7.755a.387.387 0 0 1-.256-.096L2.13 1.669a.38.38 0 0 1-.033-.54.388.388 0 0 1 .545-.032L9.2 6.862l6.559-5.766a.388.388 0 0 1 .544.033.38.38 0 0 1-.032.54l-6.815 5.99a.386.386 0 0 1-.256.096z"/>
</svg>
