<svg xmlns="http://www.w3.org/2000/svg" width="24" height="24" viewBox="0 0 24 24">
    <path fill="#FFF" fill-rule="evenodd" d="M21 6.66a7.652 7.652 0 0 1-2.122.558 3.568 3.568 0 0 0 1.624-1.96 7.547 7.547 0 0 1-2.345.858A3.761 3.761 0 0 0 15.463 5c-2.013-.028-3.666 1.555-3.694 3.535 0 .27.032.539.095.802a10.65 10.65 0 0 1-7.612-3.693 3.415 3.415 0 0 0-.5 1.781 3.498 3.498 0 0 0 1.644 2.94 3.82 3.82 0 0 1-1.673-.446v.044c.019 1.704 1.26 3.158 2.963 3.467a3.877 3.877 0 0 1-1.668.06 3.68 3.68 0 0 0 3.45 2.455 7.614 7.614 0 0 1-4.587 1.514c-.294 0-.588-.016-.881-.05a10.8 10.8 0 0 0 5.661 1.589c5.68.12 10.383-4.314 10.506-9.905l.003-.153c0-.154 0-.307-.011-.458A7.333 7.333 0 0 0 21 6.66"/>
</svg>
