<svg xmlns="http://www.w3.org/2000/svg" width="16" height="16" viewBox="0 0 16 16">
    <g fill="none" fill-rule="nonzero">
        <path fill="#C8193E" d="M14.661 7.053H1.34c-.14 0-.253.121-.253.27v8.397c0 .15.113.27.253.27H14.66c.14 0 .253-.12.253-.27V7.324c0-.15-.113-.27-.253-.27z"/>
        <path fill="#000" d="M14.661 7.053H1.34c-.14 0-.253.121-.253.27v1.083h13.828V7.324c0-.15-.113-.27-.253-.27z" opacity=".2"/>
        <path fill="#D8B48E" d="M9.29 7.053H6.71c-.14 0-.253.121-.253.27v8.397c0 .15.113.27.252.27h2.582c.14 0 .252-.12.252-.27V7.324c0-.15-.113-.27-.252-.27z"/>
        <path fill="#000" d="M9.29 7.053H6.71c-.14 0-.253.121-.253.27V8.4h3.086V7.324c0-.15-.113-.27-.252-.27z" opacity=".1"/>
        <path fill="#D8B48E" d="M14.17 2.054c-.249-.691-.64-1.367-1.046-1.806a.744.744 0 0 0-.58-.238c-.758.019-1.994 1.038-3.673 3.03a.282.282 0 0 0-.066.182v1.431c0 .15.114.27.253.27h3.886c.866 0 1.223-.45 1.37-.83.197-.504.145-1.228-.145-2.039z"/>
        <path fill="#7E6A55" d="M14.314 2.526a.28.28 0 0 0-.033-.078c-.382-.618-1.206-.387-1.83-.084-1.814.88-2.563 2.09-2.594 2.142a.287.287 0 0 0-.01.276.25.25 0 0 0 .222.142h2.875c.551 0 .96-.181 1.215-.539.302-.424.356-1.067.155-1.859z"/>
        <path fill="#D8B48E" d="M7.13 3.04C5.45 1.048 4.213.03 3.455.01a.743.743 0 0 0-.58.238c-.407.44-.797 1.115-1.045 1.807-.29.81-.342 1.534-.146 2.039.148.379.505.83 1.37.83h3.887c.14 0 .252-.121.252-.27V3.221a.281.281 0 0 0-.065-.182z"/>
        <path fill="#7E6A55" d="M6.143 4.506c-.03-.051-.78-1.263-2.594-2.142-.624-.303-1.448-.534-1.83.084a.28.28 0 0 0-.033.078c-.201.792-.147 1.435.155 1.86.255.356.664.538 1.215.538H5.93a.25.25 0 0 0 .222-.142.287.287 0 0 0-.01-.276z"/>
        <path fill="#947657" d="M9.058 2.684H6.942c-.14 0-.253.12-.253.27v1.7c0 .149.113.27.253.27h2.116c.14 0 .253-.121.253-.27v-1.7c0-.15-.113-.27-.253-.27z"/>
        <path fill="#C8193E" d="M15.747 4.383H.253c-.14 0-.253.121-.253.27v2.67c0 .15.113.271.253.271h15.494c.14 0 .253-.12.253-.27v-2.67c0-.15-.113-.271-.253-.271z"/>
        <path fill="#D8B48E" d="M6.06 4.383h3.88v3.211H6.06z"/>
    </g>
</svg>
