<svg xmlns="http://www.w3.org/2000/svg" width="24" height="24" viewBox="0 0 24 24">
    <path fill="#FFF" fill-rule="nonzero" d="M15.699 5.003L13.779 5c-2.155 0-3.548 1.352-3.548 3.445v1.589h-1.93A.294.294 0 0 0 8 10.32v2.301c0 .158.135.286.302.286h1.929v5.808c0 .157.135.285.302.285h2.517a.294.294 0 0 0 .302-.285v-5.808h2.255a.294.294 0 0 0 .302-.286l.001-2.301a.278.278 0 0 0-.088-.202.31.31 0 0 0-.214-.084h-2.256V8.687c0-.647.163-.975 1.054-.975h1.292A.294.294 0 0 0 16 7.425V5.288a.294.294 0 0 0-.301-.285z"/>
</svg>
