<svg xmlns="http://www.w3.org/2000/svg" width="16" height="15" viewBox="0 0 16 15">
    <g fill="#FFF" fill-rule="nonzero">
        <path d="M.198 7.107L1.91 5.869c.31-.224.739.004.739.393v.757h8.22c.259 0 .469.215.469.481s-.21.48-.47.48h-8.22v.758c0 .391-.43.615-.738.393L.198 7.893a.489.489 0 0 1 0-.786z"/>
        <path d="M2.548 10.587a.462.462 0 0 1 .64.176c1.101 1.952 3.16 3.263 5.512 3.263 3.508 0 6.362-2.928 6.362-6.526S12.208.974 8.7.974c-2.354 0-4.411 1.312-5.512 3.263a.463.463 0 0 1-.64.176.488.488 0 0 1-.171-.657C3.643 1.51 6.008.013 8.7.013 12.735.013 16 3.36 16 7.5c0 4.138-3.265 7.487-7.3 7.487-2.693 0-5.057-1.499-6.323-3.743a.488.488 0 0 1 .17-.657z"/>
    </g>
</svg>
