<svg xmlns="http://www.w3.org/2000/svg" width="16" height="16" viewBox="0 0 16 16">
    <path fill="#FFF" fill-rule="nonzero" d="M7.977 15.909a1.483 1.483 0 0 1-1.407-1.001l-.529-1.502a.345.345 0 0 0-.202-.216.33.33 0 0 0-.293.011l-1.429.683a1.484 1.484 0 0 1-1.7-.296 1.519 1.519 0 0 1-.292-1.718l.676-1.445a.386.386 0 0 0 .01-.296.345.345 0 0 0-.213-.205L1.113 9.39a1.482 1.482 0 0 1-.99-1.423c0-.648.393-1.206.99-1.422l1.485-.535a.345.345 0 0 0 .214-.204.34.34 0 0 0-.011-.296l-.676-1.445a1.525 1.525 0 0 1 .293-1.718 1.478 1.478 0 0 1 1.7-.296l1.428.683a.375.375 0 0 0 .293.01.345.345 0 0 0 .202-.215l.53-1.502A1.464 1.464 0 0 1 7.976.014c.641 0 1.193.398 1.406 1.001l.53 1.502a.345.345 0 0 0 .202.217.33.33 0 0 0 .292-.012l1.43-.683a1.484 1.484 0 0 1 1.699.296c.45.455.562 1.127.292 1.718l-.675 1.445a.386.386 0 0 0-.011.296c.022.057.079.16.214.205l1.485.535c.608.216.99.773.99 1.422 0 .648-.394 1.206-.99 1.422l-1.485.535a.345.345 0 0 0-.214.205.34.34 0 0 0 .011.296l.675 1.444c.27.58.158 1.252-.292 1.719a1.478 1.478 0 0 1-1.7.295l-1.429-.682a.375.375 0 0 0-.292-.012.345.345 0 0 0-.203.216l-.529 1.502a1.489 1.489 0 0 1-1.406 1.013zm-2.285-3.891c.192 0 .383.034.574.114.394.159.698.489.833.887l.529 1.502c.079.227.27.25.349.25.079 0 .27-.023.349-.25l.529-1.502c.146-.398.45-.728.832-.887.394-.16.833-.148 1.216.034l1.429.682c.213.103.36-.022.416-.068a.354.354 0 0 0 .067-.42l-.675-1.446a1.555 1.555 0 0 1-.033-1.229c.157-.398.483-.705.877-.842l1.486-.534a.357.357 0 0 0 .247-.353.357.357 0 0 0-.247-.353l-1.497-.535a1.53 1.53 0 0 1-.878-.842 1.555 1.555 0 0 1 .034-1.228l.675-1.445c.101-.216-.022-.364-.067-.421a.345.345 0 0 0-.417-.069l-1.429.683a1.507 1.507 0 0 1-1.215.034 1.468 1.468 0 0 1-.833-.887L8.314 1.39a.353.353 0 0 0-.348-.25.353.353 0 0 0-.35.25l-.528 1.502c-.146.398-.45.728-.833.887-.394.16-.833.148-1.215-.034l-1.43-.683a.345.345 0 0 0-.416.069.354.354 0 0 0-.067.42l.675 1.446c.18.387.191.83.034 1.228a1.465 1.465 0 0 1-.878.842l-1.474.535a.357.357 0 0 0-.248.353c0 .08.023.273.248.353l1.485.534c.394.148.72.455.878.842.158.399.146.842-.034 1.23l-.675 1.444a.354.354 0 0 0 .068.421c.056.057.202.17.416.068l1.43-.682a1.43 1.43 0 0 1 .64-.148zm2.285-.808c-1.767 0-3.207-1.456-3.207-3.243 0-1.786 1.44-3.242 3.207-3.242 1.766 0 3.207 1.456 3.207 3.242 0 1.787-1.44 3.243-3.207 3.243zm0-5.359c-1.148 0-2.082.944-2.082 2.105 0 1.16.934 2.105 2.082 2.105 1.148 0 2.082-.945 2.082-2.105 0-1.16-.934-2.105-2.082-2.105z"/>
</svg>
