<svg xmlns="http://www.w3.org/2000/svg" width="16" height="15" viewBox="0 0 16 15">
    <path fill="#FFF" fill-rule="nonzero" d="M13.143 15H9.714a.574.574 0 0 1-.571-.577v-4.039H6.857v4.039a.574.574 0 0 1-.571.577H2.857a.574.574 0 0 1-.571-.577V8.077H.572a.572.572 0 0 1-.533-.367.58.58 0 0 1 .145-.634L7.613.153a.568.568 0 0 1 .774 0l7.429 6.923a.58.58 0 0 1 .145.634.572.572 0 0 1-.533.367h-1.714v6.346a.574.574 0 0 1-.571.577zm-2.857-1.154h2.285V7.5c0-.319.256-.577.572-.577h.824L8 1.362l-5.967 5.56h.824c.316 0 .572.26.572.578v6.346h2.285V9.807c0-.318.256-.577.572-.577h3.428c.316 0 .572.259.572.577v4.04z"/>
</svg>
