<svg xmlns="http://www.w3.org/2000/svg" width="24" height="24" viewBox="0 0 24 24">
    <path fill="#FFF" fill-rule="nonzero" d="M15.584 4H8.415A4.42 4.42 0 0 0 4 8.415v7.17A4.42 4.42 0 0 0 8.415 20h7.17A4.42 4.42 0 0 0 20 15.585v-7.17A4.42 4.42 0 0 0 15.584 4zm2.996 11.585a3 3 0 0 1-2.995 2.995h-7.17a3 3 0 0 1-2.995-2.995v-7.17A3 3 0 0 1 8.415 5.42h7.17a3 3 0 0 1 2.995 2.995v7.17zM12 7.902A4.102 4.102 0 0 0 7.902 12 4.102 4.102 0 0 0 12 16.098 4.102 4.102 0 0 0 16.098 12 4.102 4.102 0 0 0 12 7.902zm0 6.785A2.69 2.69 0 0 1 9.313 12 2.69 2.69 0 0 1 12 9.313 2.69 2.69 0 0 1 14.687 12 2.69 2.69 0 0 1 12 14.687zm4.293-7.955a.98.98 0 0 0-.976.975c0 .257.105.509.287.69.18.181.432.286.689.286a.985.985 0 0 0 .69-.286.98.98 0 0 0 0-1.38.98.98 0 0 0-.69-.285z"/>
</svg>
