<svg xmlns="http://www.w3.org/2000/svg" width="32" height="38" viewBox="0 0 32 38">
    <g fill="#222" fill-rule="evenodd">
        <path fill-rule="nonzero" d="M31.36 36.733h-1.92V34.2h-3.2v-6.474c0-1.71-.859-3.298-2.297-4.247L17.153 19l6.79-4.479a5.081 5.081 0 0 0 2.297-4.247V3.8h3.2V1.267h1.92c.353 0 .64-.283.64-.634A.637.637 0 0 0 31.36 0H.64A.637.637 0 0 0 0 .633c0 .35.287.634.64.634h1.92V3.8h3.2v6.474c0 1.71.859 3.298 2.297 4.247L14.847 19l-6.79 4.479a5.081 5.081 0 0 0-2.297 4.247V34.2h-3.2v2.533H.64a.637.637 0 0 0-.64.634c0 .35.287.633.64.633h30.72c.353 0 .64-.283.64-.633a.637.637 0 0 0-.64-.634zM3.84 2.533V1.267h24.32v1.266H3.84zm4.927 10.934a3.821 3.821 0 0 1-1.727-3.193V3.8h17.92v6.474c0 1.286-.646 2.48-1.727 3.193L16 18.24l-7.233-4.772zM7.04 27.727c0-1.287.646-2.48 1.727-3.194L16 19.76l7.233 4.772a3.821 3.821 0 0 1 1.727 3.193V34.2H7.04v-6.474zm-3.2 7.74h24.32v1.266H3.84v-1.266z"/>
        <path d="M10.187 30.36a1.3 1.3 0 0 1-.587-1.086v-1.407a.637.637 0 0 0-.64-.634.637.637 0 0 0-.64.634v1.407c0 .862.433 1.662 1.157 2.14l2.968 1.958a.644.644 0 0 0 .888-.176.63.63 0 0 0-.177-.878l-2.97-1.959zM22.523 7.131l-2.968-1.958a.644.644 0 0 0-.888.175.63.63 0 0 0 .177.879l2.968 1.958c.368.243.588.648.588 1.086v1.407c0 .35.287.633.64.633.353 0 .64-.283.64-.633V9.271c0-.863-.433-1.662-1.157-2.14z"/>
    </g>
</svg>
