<svg xmlns="http://www.w3.org/2000/svg" width="18" height="17" viewBox="0 0 18 17">
    <path fill="none" fill-rule="nonzero" stroke="#FFF" stroke-width=".9" d="M17 6.813c0-.233-.18-.378-.539-.435l-4.826-.69-2.164-4.3C9.35 1.128 9.192 1 9.001 1c-.193 0-.35.13-.472.387L6.365 5.688l-4.827.69C1.18 6.435 1 6.58 1 6.813c0 .132.08.283.24.454l3.5 3.345-.826 4.726a1.51 1.51 0 0 0-.02.19.55.55 0 0 0 .101.335c.068.091.168.137.303.137a.826.826 0 0 0 .385-.113L9 13.656l4.317 2.23a.788.788 0 0 0 .385.114.341.341 0 0 0 .293-.137.551.551 0 0 0 .101-.336c0-.081-.003-.144-.01-.189l-.827-4.726 3.49-3.345c.168-.164.251-.316.251-.454z"/>
</svg>
