<svg xmlns="http://www.w3.org/2000/svg" width="18" height="18" viewBox="0 0 18 18">
    <g fill="#858B91" fill-rule="nonzero">
        <path d="M15.89 1.406h-.843V0H13.64v1.406H4.359V0H2.953v1.406H2.11C.946 1.406 0 2.353 0 3.516V15.89C0 17.054.946 18 2.11 18h13.78c1.164 0 2.11-.946 2.11-2.11V3.517c0-1.163-.946-2.11-2.11-2.11zm.704 14.485a.704.704 0 0 1-.703.703H2.109a.704.704 0 0 1-.703-.703V6.609h15.188v9.282zm0-10.688H1.406V3.516c0-.388.316-.704.703-.704h.844V4.22H4.36V2.812h9.282V4.22h1.406V2.812h.844c.387 0 .703.316.703.704v1.687z"/>
        <path d="M2.672 8.086h1.406v1.406H2.672zM5.484 8.086H6.89v1.406H5.484zM8.297 8.086h1.406v1.406H8.297zM11.109 8.086h1.406v1.406h-1.406zM13.922 8.086h1.406v1.406h-1.406zM2.672 10.898h1.406v1.406H2.672zM5.484 10.898H6.89v1.406H5.484zM8.297 10.898h1.406v1.406H8.297zM11.109 10.898h1.406v1.406h-1.406zM2.672 13.711h1.406v1.406H2.672zM5.484 13.711H6.89v1.406H5.484zM8.297 13.711h1.406v1.406H8.297zM11.109 13.711h1.406v1.406h-1.406zM13.922 10.898h1.406v1.406h-1.406z"/>
    </g>
</svg>
