<svg xmlns="http://www.w3.org/2000/svg" width="24" height="24" viewBox="0 0 24 24">
    <path fill="#FFF" fill-rule="nonzero" d="M20 13.583V19h-3.215v-5.054c0-1.27-.465-2.136-1.629-2.136-.888 0-1.417.584-1.65 1.149-.084.202-.106.483-.106.766V19h-3.216s.043-8.56 0-9.446H13.4v1.339l-.021.03h.02v-.03c.428-.643 1.191-1.561 2.899-1.561 2.116 0 3.702 1.35 3.702 4.251zM6.82 5C5.72 5 5 5.705 5 6.632c0 .907.699 1.633 1.777 1.633H6.8c1.121 0 1.819-.726 1.819-1.633C8.597 5.705 7.92 5 6.82 5zM5.19 19h3.215V9.554H5.19V19z"/>
</svg>
