<svg xmlns="http://www.w3.org/2000/svg" width="24" height="24" viewBox="0 0 24 24">
    <path fill="#FFF" fill-rule="nonzero" d="M21.22 6.202C20.5 5.348 19.166 5 16.62 5H7.38C4.776 5 3.42 5.37 2.7 6.28 2 7.165 2 8.47 2 10.277v3.444C2 17.222 2.832 19 7.38 19h9.24c2.208 0 3.43-.307 4.222-1.06.812-.773 1.158-2.034 1.158-4.218v-3.444c0-1.906-.054-3.219-.78-4.076zm-6.38 6.274l-4.196 2.18a.647.647 0 0 1-.944-.568V9.74c0-.225.118-.433.31-.549a.648.648 0 0 1 .633-.021l4.196 2.167a.641.641 0 0 1 .001 1.139z"/>
</svg>
