<svg xmlns="http://www.w3.org/2000/svg" width="79" height="79" viewBox="0 0 79 79">
    <g fill="none" fill-rule="nonzero">
        <rect width="62" height="76" fill="#F1F1F1" rx="7.92"/>
        <path fill="#000" d="M65.5 30.15a1.34 1.34 0 0 0 1.337-1.344v-14.62c0-2.224-1.8-4.033-4.011-4.033H14.164c-2.212 0-4.011 1.81-4.011 4.033V74.95c0 2.224 1.8 4.033 4.01 4.033h48.663c2.211 0 4.01-1.81 4.01-4.033v-9.904a1.34 1.34 0 0 0-1.336-1.344 1.34 1.34 0 0 0-1.337 1.344v9.904c0 .741-.6 1.344-1.337 1.344H14.164a1.342 1.342 0 0 1-1.337-1.344V14.186c0-.741.6-1.344 1.337-1.344h48.662c.737 0 1.337.603 1.337 1.344v14.62A1.34 1.34 0 0 0 65.5 30.15z"/>
        <path fill="#000" d="M38.394 17.306c-6.698 0-12.147 5.449-12.147 12.146 0 3.475 1.467 6.613 3.813 8.829.044.047.091.092.142.132a12.1 12.1 0 0 0 8.191 3.186 12.1 12.1 0 0 0 8.192-3.186 1.32 1.32 0 0 0 .142-.132 12.113 12.113 0 0 0 3.813-8.829c0-6.697-5.449-12.146-12.146-12.146zm0 21.652a9.455 9.455 0 0 1-5.742-1.936 6.559 6.559 0 0 1 5.742-3.345 6.559 6.559 0 0 1 5.742 3.345 9.455 9.455 0 0 1-5.742 1.936zM36.28 28.924v-.858c0-1.165.948-2.112 2.113-2.112 1.164 0 2.112.947 2.112 2.112v.858a2.115 2.115 0 0 1-2.112 2.113 2.115 2.115 0 0 1-2.113-2.113zm9.762 6.164a9.16 9.16 0 0 0-3.89-3.26c.622-.805.994-1.811.994-2.904v-.858a4.758 4.758 0 0 0-4.753-4.753 4.758 4.758 0 0 0-4.753 4.753v.858c0 1.093.371 2.1.993 2.903a9.16 9.16 0 0 0-3.89 3.26 9.454 9.454 0 0 1-1.856-5.635c0-5.241 4.264-9.506 9.506-9.506 5.241 0 9.506 4.265 9.506 9.506 0 2.109-.691 4.058-1.857 5.636zM45.147 69.165h-6.894c-.705 0-1.277.604-1.277 1.35 0 .745.572 1.349 1.277 1.349h6.894c.705 0 1.277-.604 1.277-1.35 0-.745-.572-1.35-1.277-1.35zM44.72 62.012H25.792c-.736 0-1.333.604-1.333 1.35 0 .745.597 1.349 1.333 1.349H44.72c.736 0 1.333-.604 1.333-1.35 0-.745-.597-1.35-1.333-1.35zM44.72 53.07H25.792c-.736 0-1.333.605-1.333 1.35 0 .746.597 1.35 1.333 1.35H44.72c.736 0 1.333-.604 1.333-1.35 0-.745-.597-1.35-1.333-1.35zM22.292 46.313a1.359 1.359 0 0 0-.955-.395c-.355 0-.703.144-.954.395-.25.251-.395.6-.395.954 0 .355.144.703.395.954.253.251.6.396.954.396.356 0 .703-.145.955-.396.251-.25.395-.599.395-.954a1.36 1.36 0 0 0-.395-.954zM22.292 53.466a1.361 1.361 0 0 0-.955-.395c-.355 0-.701.144-.954.395-.25.251-.395.6-.395.954 0 .355.144.703.395.954.253.251.6.396.954.396.356 0 .703-.145.955-.396.251-.25.395-.599.395-.954a1.36 1.36 0 0 0-.395-.954zM22.292 62.407a1.361 1.361 0 0 0-.955-.395c-.355 0-.701.144-.954.395-.25.251-.395.6-.395.954 0 .355.144.704.395.955.251.25.6.395.954.395.356 0 .704-.144.955-.395s.395-.6.395-.955a1.36 1.36 0 0 0-.395-.954zM44.72 45.918H25.792c-.736 0-1.333.604-1.333 1.35 0 .745.597 1.349 1.333 1.349H44.72c.736 0 1.333-.604 1.333-1.35 0-.745-.597-1.35-1.333-1.35zM75.955 27.001a5.465 5.465 0 0 0-4.213-.56 5.524 5.524 0 0 0-3.37 2.614L51.735 58.178c-.09.16-.148.337-.169.52L50.397 69.3a1.34 1.34 0 0 0 .652 1.305 1.31 1.31 0 0 0 1.445-.081l8.498-6.326c.146-.11.27-.248.36-.408l16.635-29.123c1.531-2.68.62-6.118-2.032-7.666zM53.36 66.561l.612-5.536 3.825 2.233-4.437 3.303zm6.365-5.264l-5.037-2.94 13.349-23.37 5.037 2.94-13.35 23.37zM75.698 33.33l-1.303 2.281-5.037-2.94 1.303-2.28a2.893 2.893 0 0 1 3.972-1.076 2.916 2.916 0 0 1 1.355 1.784c.201.759.098 1.551-.29 2.231z"/>
    </g>
</svg>
