<svg xmlns="http://www.w3.org/2000/svg" width="81" height="81" viewBox="0 0 81 81">
    <g fill="none" fill-rule="evenodd">
        <rect width="69" height="61.981" fill="#F1F1F1" fill-rule="nonzero" rx="8"/>
        <g fill="#000">
            <path fill-rule="nonzero" d="M79.535 48.478h-1.172V13.324C78.363 9.286 75.078 6 71.04 6H15.961c-4.039 0-7.324 3.286-7.324 7.324v35.154H7.465c-.81 0-1.465.656-1.465 1.465v2.49c0 3.958 3.22 7.178 7.178 7.178h1.693a10.08 10.08 0 0 0-.27 7.942l4.868 12.513a1.465 1.465 0 1 0 2.73-1.062L17.331 66.49a7.153 7.153 0 0 1 .758-6.626l2.414-3.54v2.84a1.465 1.465 0 1 0 2.93 0V35.01a2.06 2.06 0 0 1 2.057-2.057 2.06 2.06 0 0 1 2.058 2.057v19.294a1.465 1.465 0 1 0 2.93 0v-6.895a2.06 2.06 0 0 1 2.057-2.057 2.06 2.06 0 0 1 2.057 2.057v6.895a1.465 1.465 0 1 0 2.93 0v-6.895a2.06 2.06 0 0 1 2.057-2.057 2.06 2.06 0 0 1 2.058 2.057v6.895a1.465 1.465 0 1 0 2.93 0V47.389a2.06 2.06 0 0 1 2.057-2.058 2.06 2.06 0 0 1 2.057 2.057V60.47c0 4.385-.871 8.654-2.59 12.688l-2.474 5.803a1.465 1.465 0 0 0 2.695 1.149l2.474-5.804A35.103 35.103 0 0 0 51.61 60.47v-.858h22.211c3.958 0 7.178-3.22 7.178-7.178v-2.49c0-.81-.656-1.465-1.465-1.465zm-62.821 8.203h-3.536a4.253 4.253 0 0 1-4.248-4.248v-1.025H20.31l-3.597 5.273zm3.79-21.67v3.215h-1.028a2.64 2.64 0 0 1-2.637-2.636 2.64 2.64 0 0 1 2.637-2.637h1.474a4.954 4.954 0 0 0-.446 2.057zm9.528-2.058h5.213a2.64 2.64 0 0 1 2.636 2.637 2.64 2.64 0 0 1-2.636 2.636h-4.767V35.01c0-.733-.16-1.43-.446-2.057zM46.624 42.4c-1.38 0-2.63.563-3.533 1.47a4.97 4.97 0 0 0-3.512-1.45c-1.373 0-2.62.56-3.522 1.46a4.971 4.971 0 0 0-5.58-1.013v-1.712h4.768a5.573 5.573 0 0 0 5.566-5.566 5.573 5.573 0 0 0-5.566-5.567H19.476a5.573 5.573 0 0 0-5.566 5.567 5.573 5.573 0 0 0 5.566 5.566h1.028v7.322h-8.938V13.324a4.4 4.4 0 0 1 4.395-4.394h55.078a4.4 4.4 0 0 1 4.395 4.394v28.713h-12.6a1.465 1.465 0 1 0 0 2.93h12.6v3.511H51.61v-1.09a4.992 4.992 0 0 0-4.987-4.987zM78.07 52.433a4.253 4.253 0 0 1-4.248 4.248H51.611v-5.273h26.46v1.025z"/>
            <path d="M58.916 43.445a1.368 1.368 0 0 0-.958-.397 1.36 1.36 0 0 0-1.355 1.355 1.358 1.358 0 0 0 1.355 1.356 1.36 1.36 0 0 0 1.355-1.355c0-.357-.145-.707-.397-.959zM31.808 23.566a1.365 1.365 0 0 0-.959-.397 1.36 1.36 0 0 0-1.355 1.355 1.36 1.36 0 0 0 1.355 1.356c.357 0 .705-.146.959-.398.252-.252.397-.601.397-.958 0-.356-.145-.706-.397-.958zM25.31 23.169H14.702c-.814 0-1.474.606-1.474 1.355s.66 1.356 1.474 1.356h10.606c.814 0 1.474-.607 1.474-1.356 0-.749-.66-1.355-1.474-1.355zM39.764 13.229H15.61c-.815 0-1.476.607-1.476 1.355 0 .749.66 1.356 1.476 1.356h24.155c.816 0 1.477-.607 1.477-1.356 0-.748-.661-1.355-1.477-1.355z"/>
            <path fill-rule="nonzero" d="M68.485 24.41v-2.087c0-1.527-1.31-2.769-2.922-2.769h-5.137c-.533 0-1.03.138-1.461.375a3.024 3.024 0 0 0-1.46-.375h-5.138c-1.611 0-2.922 1.242-2.922 2.769v2.034c-2.631.612-4.59 2.865-4.59 5.545v4.533c0 .765.654 1.384 1.461 1.384h25.09c.807 0 1.461-.62 1.461-1.384v-4.533c0-2.61-1.856-4.813-4.382-5.493zm-8.06-2.087h5.138v1.868h-5.137v-1.868zm-8.058 0h5.137v1.868h-5.137v-1.868zm17.58 10.728h-22.17V29.9c0-1.621 1.393-2.941 3.105-2.941h15.96c1.712 0 3.104 1.32 3.104 2.942v3.149z"/>
        </g>
    </g>
</svg>
