<svg xmlns="http://www.w3.org/2000/svg" width="104" height="57" viewBox="0 0 104 57">
    <g fill="none" fill-rule="nonzero">
        <path fill="#F1F1F1" d="M8.245 0h72.857a8 8 0 0 1 7.286 4.698L102.88 36.68a8 8 0 0 1-7.287 11.302H8.245a8 8 0 0 1-8-8V8a8 8 0 0 1 8-8z"/>
        <path fill="#000" d="M6 8.599v38.986c.009.376.124.68.345.915.221.235.537.363.947.384h6.78c1.149 4.481 5.207 7.797 10.011 7.797 4.805 0 8.863-3.316 10.01-7.797h28.74v-2.599H34.417c0-5.726-4.642-10.396-10.334-10.396-5.691 0-10.333 4.67-10.333 10.396H8.583V30.691h15.5V12.497h-15.5V9.9H80.03l7.427 18.64.202.527.484.204 8.275 3.573v13.442H91.25c0-5.726-4.642-10.396-10.333-10.396-5.692 0-10.334 4.67-10.334 10.396 0 5.726 4.642 10.396 10.334 10.396 4.804 0 8.862-3.316 10.01-7.797h6.781c.367-.025.674-.153.921-.384.247-.23.371-.535.371-.915V31.99c-.022-.345-.08-.593-.174-.743-.094-.15-.292-.308-.593-.475l-8.557-3.695-7.548-18.965a1.12 1.12 0 0 0-.381-.608c-.182-.143-.459-.211-.83-.205H7.292c-.47.006-.802.118-.998.336-.196.219-.294.54-.294.964zm21.958 3.899V30.69h15.5V12.497h-15.5zm19.375 0V30.69h15.5V12.497h-15.5zm19.375 0V30.69h18.447l-.686-1.787-6.216-15.594-.323-.812H66.708zM8.583 15.097H21.5v12.995H8.583V15.097zm21.959 0h10.333v12.995H30.542V15.097zm19.375 0H60.25v12.995H49.917V15.097zm19.375 0h6.862l5.166 12.995H69.292V15.097zM24.083 38.488c4.296 0 7.75 3.475 7.75 7.797 0 4.322-3.454 7.797-7.75 7.797-4.295 0-7.75-3.475-7.75-7.797 0-4.322 3.455-7.797 7.75-7.797zm56.834 0c4.295 0 7.75 3.475 7.75 7.797 0 4.322-3.455 7.797-7.75 7.797-4.296 0-7.75-3.475-7.75-7.797 0-4.322 3.454-7.797 7.75-7.797zm-56.834 2.599c-2.838 0-5.166 2.343-5.166 5.198 0 2.856 2.328 5.198 5.166 5.198 2.839 0 5.167-2.342 5.167-5.198 0-2.855-2.328-5.198-5.167-5.198zm56.834 0c-2.839 0-5.167 2.343-5.167 5.198 0 2.856 2.328 5.198 5.167 5.198 2.838 0 5.166-2.342 5.166-5.198 0-2.855-2.328-5.198-5.166-5.198zm-56.834 2.6a2.572 2.572 0 0 1 2.584 2.598 2.572 2.572 0 0 1-2.584 2.6 2.572 2.572 0 0 1-2.583-2.6 2.572 2.572 0 0 1 2.583-2.599zm56.834 0a2.572 2.572 0 0 1 2.583 2.598 2.572 2.572 0 0 1-2.583 2.6 2.572 2.572 0 0 1-2.584-2.6 2.572 2.572 0 0 1 2.584-2.599z"/>
    </g>
</svg>
