<svg xmlns="http://www.w3.org/2000/svg" width="77" height="75" viewBox="0 0 77 75">
    <g fill="none" fill-rule="evenodd">
        <circle cx="34.5" cy="34.5" r="34.5" fill="#F1F1F1" fill-rule="nonzero"/>
        <g fill="#000">
            <path d="M38.571 44.217c-.499-1.386.245-2.936 1.659-3.457 1.408-.518 2.958.186 3.457 1.57l8.837 5.561-.746 1.478-9.816-3.554-.085.024c-1.377.418-2.828-.296-3.306-1.622z"/>
            <path d="M41.498 8C21.923 8 6 24.322 6 44.384c0 7.003 1.948 13.804 5.637 19.665l.266.422h4.415l5.985-5.358-2.585-3.04-5.838 5.224-.19-.33a33.524 33.524 0 0 1-4.392-16.584c0-.169.01-.33.027-.538l.023-.611 7.108-.009v-4.032H9.728l.06-.372c.932-5.627 3.272-10.919 6.769-15.305l.216-.271 5.011 5.13 2.79-2.844-5.074-5.203.239-.224c5.225-4.924 11.68-7.887 18.669-8.569l.338-.032.005 8.414h3.931v-8.48l.323.017c7.75.369 15.101 3.586 20.7 9.061l.228.222-5.187 5.328 2.785 2.85 5.055-5.187.217.281a33.361 33.361 0 0 1 6.408 14.815l.06.37-6.988.005v4.034h7.371l.027.649c.01.168.021.333.021.502a33.538 33.538 0 0 1-4.35 16.512l-.201.357-5.501-5.634-2.777 2.854 5.847 5.998h4.378l.268-.424C75.052 58.18 77 51.38 77 44.383 77 24.322 61.075 8 41.498 8zM25.88 70.214h31.24V75H25.88z"/>
        </g>
    </g>
</svg>
