<svg xmlns="http://www.w3.org/2000/svg" width="36" height="57" viewBox="0 0 36 57">
    <g fill="none" fill-rule="evenodd">
        <ellipse cx="18" cy="50" fill="#D8D8D8" opacity=".8" rx="6" ry="1"/>
        <path fill="#000" fill-rule="nonzero" d="M18 0C8.075 0 0 7.96 0 17.746 0 29.889 16.108 47.717 16.794 48.47a1.637 1.637 0 0 0 2.412 0C19.892 47.717 36 29.89 36 17.746 36 7.96 27.925 0 18 0zm0 29c-6.065 0-11-4.935-11-11 0-6.066 4.935-11 11-11s11 4.935 11 11c0 6.066-4.935 11-11 11z"/>
        <g fill="#000">
            <path d="M18.184 13l1.522 4.603 1.923-3.766.858 3.897 2.073-3.295v3.635l2.808-2.328-1.874 3.788a19.21 19.21 0 0 0-7.31-1.435c-2.588 0-5.057.51-7.31 1.435L9 15.746l2.808 2.328V14.44l2.073 3.295.858-3.897 1.923 3.766L18.184 13"/>
            <path d="M18.362 18.6c2.467 0 4.82.492 6.962 1.384l-.326.695a17.318 17.318 0 0 0-6.636-1.313c-2.35 0-4.592.467-6.636 1.313l-.326-.695a18.08 18.08 0 0 1 6.962-1.384"/>
        </g>
    </g>
</svg>
