<svg xmlns="http://www.w3.org/2000/svg" width="125" height="53" viewBox="0 0 125 53">
    <g fill="#000" fill-rule="evenodd">
        <path d="M107.537 29.831h6.42c.134 0 .179-.076.134-.229l-3.193-8.814c-.09-.239-.179-.359-.269-.359-.067 0-.145.12-.235.36l-2.958 8.813c-.045.153-.011.229.1.229zm-4.37 10.707l-.191.004a92.643 92.643 0 0 1-2.643-.02c-.561-.022-.327-.21.07-.495.04.019.1-.066.141-.051.921-.36 1.683-1.338 2.287-2.931l7.63-20.272c.314-.849.56-1.273.74-1.273.179 0 .425.392.74 1.176 1.926 4.918 4.537 11.48 7.831 19.683.583 1.436 1.176 2.438 1.781 3.004.359.326.807.554 1.344.685.381.087.751.13 1.11.13.224 0 .336.066.336.197 0 .173-.224.26-.672.26-2.196 0-3.955-.022-5.277-.065-.672-.022-1.009-.098-1.009-.228 0-.109.078-.185.235-.228.337-.088.404-.381.202-.882l-3.126-8.03c-.067-.13-.168-.196-.302-.196h-7.227c-.157 0-.269.087-.336.26l-2.017 5.779c-.314.892-.47 1.621-.47 2.187 0 .631.426.947 1.277.947h.336c.224 0 .336.065.336.196a.2.2 0 0 1-.064.152c-.685.005-1.822.012-2.93.014l-.132-.003zM75.8 31.06V25.37c0-3.942-.021-6.269-.064-6.98-.064-1.034-.526-1.648-1.384-1.842a5.292 5.292 0 0 0-1.094-.097c-.172 0-.258-.064-.258-.194 0-.172.172-.258.515-.258.6 0 1.373.022 2.317.065.945.021 1.384.032 1.32.032.064 0 .612-.01 1.642-.032A63.67 63.67 0 0 1 80.951 16c2.617 0 4.581.474 5.89 1.422 1.48 1.077 2.221 2.542 2.221 4.395 0 2.564-1.299 5.052-3.895 7.465 2.125 2.714 3.337 4.266 3.637 4.653 1.224 1.552 2.243 2.758 3.058 3.62 1.245 1.336 2.554 2.111 3.927 2.327.408.064.827.097 1.256.097.193 0 .29.064.29.194 0 .171-.258.258-.773.258h-2.285c-1.546 0-2.694-.205-3.445-.614-.622-.323-1.287-.905-1.995-1.745-.365-.41-1.148-1.411-2.35-3.006a366.891 366.891 0 0 0-3.509-4.782.583.583 0 0 0-.418-.194l-3.959-.065c-.15 0-.225.086-.225.259v.776c0 3.726.053 6.064.16 7.012.13 1.077.548 1.67 1.256 1.777.622.086 1.105.13 1.448.13.172 0 .258.064.258.194 0 .171-.172.258-.515.258-.73 0-1.599-.022-2.607-.065-.988-.022-1.438-.032-1.353-.032-1.48.064-2.489.097-3.025.097-.343 0-.515-.087-.515-.258 0-.13.096-.194.29-.194.214 0 .526-.044.933-.13.494-.107.805-.7.933-1.777.108-.84.161-3.178.161-7.012zm2.576-13.444v10.567a.42.42 0 0 0 .225.388c.58.344 1.706.517 3.38.517 1.008 0 1.813-.205 2.414-.614 1.309-.905 1.963-2.564 1.963-4.977 0-2.025-.504-3.608-1.512-4.75-.988-1.142-2.34-1.713-4.056-1.713-1.009 0-1.728.065-2.157.194-.171.064-.257.194-.257.388zM39 25.999c0-3.901 1.293-7.392 3.88-10.475C45.935 11.842 50.063 10 55.264 10c4.734 0 8.6 1.364 11.6 4.092 3.082 2.81 4.624 6.56 4.624 11.252 0 4.692-1.5 8.62-4.5 11.784-3.11 3.3-7.1 4.95-11.971 4.95-5.229 0-9.316-1.758-12.26-5.277C40.252 33.8 39 30.199 39 25.999zm3.922-1.146c0 4.692 1.279 8.497 3.839 11.416 2.449 2.837 5.573 4.255 9.37 4.255 2.725 0 5.091-.845 7.1-2.537 2.862-2.454 4.294-6.287 4.294-11.497 0-4.692-1.28-8.443-3.84-11.252-2.338-2.565-5.242-3.846-8.71-3.846-3.578 0-6.453 1.118-8.627 3.355-2.284 2.4-3.426 5.769-3.426 10.106zM18.73 37.361v-5.55c0-1.327-.085-2.176-.255-2.545-.149-.37-.54-.642-1.177-.817-.233-.065-.593-.097-1.08-.097-.17 0-.255-.066-.255-.197 0-.173.17-.26.508-.26.594 0 1.358.021 2.29.065l1.304.032 1.24-.032c.87-.044 1.494-.066 1.876-.066.34 0 .509.088.509.261 0 .131-.085.197-.254.197-.17 0-.435.032-.796.097-.72.13-1.112.751-1.176 1.861-.042.718-.063 1.85-.063 3.395v3.656c0 .74-.022 1.197-.064 1.371-.043.152-.16.283-.35.391-1.76.98-4.007 1.47-6.741 1.47-4.367 0-7.854-1.165-10.462-3.493-1.06-.936-1.929-2.198-2.607-3.787A13.424 13.424 0 0 1 0 27.796c0-2.459.53-4.678 1.59-6.659.933-1.74 2.173-3.101 3.72-4.08C7.451 15.686 10.27 15 13.77 15c1.632 0 3.254.185 4.865.555.678.152 1.537.261 2.575.327.255.022.382.12.382.294 0-.088-.042.337-.127 1.273a49.647 49.647 0 0 0-.095 3.362c0 .457-.096.685-.287.685-.127 0-.201-.163-.222-.49-.064-.848-.286-1.566-.668-2.154-.445-.696-1.272-1.295-2.48-1.795-1.42-.566-3.085-.85-4.993-.85-2.777 0-5.045.72-6.804 2.156-2.1 1.697-3.149 4.46-3.149 8.291 0 2.024.424 3.971 1.272 5.843.615 1.35 1.315 2.416 2.099 3.199 2.332 2.329 5.11 3.493 8.331 3.493 1.633 0 2.84-.228 3.625-.686.425-.239.636-.62.636-1.142M30.748 25.466v5.811c0 4.505.247 7.008.74 7.508.515.479 1.859.718 4.033.718 2.15 0 3.507-.326 4.067-.979.47-.544.762-1.197.874-1.958.044-.283.145-.425.302-.425.135 0 .202.163.202.49 0 1.044-.168 2.132-.504 3.264-.112.392-.28.631-.504.718-.224.108-.763.163-1.614.163-1.86 0-3.73-.033-5.613-.098-1.86-.065-2.992-.098-3.395-.098l-1.378.033c-.874.043-1.513.065-1.916.065-.358 0-.538-.087-.538-.26 0-.131.101-.196.303-.196.224 0 .549-.044.975-.131.515-.109.84-.707.974-1.795.112-.85.168-3.21.168-7.084v-5.746c0-3.982-.022-6.332-.067-7.05-.067-1.045-.55-1.665-1.445-1.861a5.713 5.713 0 0 0-1.143-.098c-.18 0-.269-.065-.269-.196 0-.174.18-.261.538-.261.627 0 1.434.022 2.42.065l1.378.033 1.479-.033a60.49 60.49 0 0 1 2.15-.065c.36 0 .539.087.539.261 0 .152-.157.24-.47.261-.292 0-.594.011-.908.033-.807.13-1.244.75-1.311 1.86-.045.719-.067 3.07-.067 7.051"/>
        <path d="M96.454 18.416c-.068-1.045-.449-1.654-1.143-1.828a4.705 4.705 0 0 0-1.042-.131c-.18 0-.269-.065-.269-.196 0-.174.179-.261.538-.261.448 0 1.131.022 2.05.065l1.344.033 1.311-.033a47.89 47.89 0 0 1 1.983-.065c.359 0 .538.087.538.261 0 .13-.09.196-.269.196-.179 0-.459.033-.84.098-.762.13-1.177.75-1.244 1.86-.044.719-.14 19.195-.1 19.847.067 1.045.448 1.654 1.142 1.828.382.087.729.131 1.043.131.18 0 .268.065.268.196 0 .174-.179.261-.537.261a47.96 47.96 0 0 1-2.05-.065l-1.345-.033-1.31.033c-.92.043-1.581.065-1.984.065-.359 0-.538-.087-.538-.261 0-.13.09-.196.27-.196.178 0 .458-.033.84-.098.761-.13 1.176-.75 1.243-1.86.045-.719.141-19.195.1-19.847M55.48 0l1.903 5.754 2.404-4.708 1.072 4.872 2.591-4.12v4.545l3.51-2.91-2.342 4.735a24.013 24.013 0 0 0-9.138-1.794c-3.235 0-6.32.638-9.137 1.794L44 3.433l3.51 2.91V1.798l2.591 4.12 1.073-4.872 2.404 4.708L55.48 0"/>
        <path d="M55.703 7c3.084 0 6.024.616 8.702 1.73l-.408.868a21.647 21.647 0 0 0-8.294-1.64c-2.939 0-5.74.583-8.295 1.64L47 8.73A22.6 22.6 0 0 1 55.703 7M19.516 47.726c0-1.466 0-1.73.02-2.03.018-.33.094-.49.348-.536.113-.019.17-.028.236-.028.038 0 .075-.02.075-.057 0-.056-.047-.075-.15-.075-.283 0-.878.028-.925.028-.047 0-.641-.028-1.065-.028-.104 0-.151.019-.151.075 0 .038.038.057.075.057.085 0 .245.009.32.028.312.066.388.216.406.536.02.3.02.564.02 2.03v.197c0 .047-.029.057-.057.057h-3.999c-.028 0-.057-.01-.057-.057v-.197c0-1.466 0-1.73.02-2.03.018-.33.094-.49.348-.536.114-.019.17-.028.236-.028.038 0 .076-.02.076-.057 0-.056-.048-.075-.151-.075-.283 0-.877.028-.924.028-.048 0-.642-.028-1.066-.028-.104 0-.151.019-.151.075 0 .038.038.057.075.057.085 0 .246.009.321.028.311.066.387.216.405.536.02.3.02.564.02 2.03v1.654c0 .903 0 1.645-.048 2.04-.037.273-.085.48-.273.517a1.462 1.462 0 0 1-.283.038c-.057 0-.076.028-.076.056 0 .057.047.076.151.076.283 0 .877-.029.925-.029.047 0 .64.029 1.16.029.103 0 .15-.029.15-.076 0-.028-.019-.056-.075-.056-.085 0-.292-.019-.424-.038-.283-.037-.34-.244-.368-.517-.048-.395-.048-1.137-.048-2.04v-.987c0-.047.029-.056.057-.056h3.999c.028 0 .056.019.056.056v.987c0 .903 0 1.645-.047 2.04-.038.273-.085.48-.273.517a1.46 1.46 0 0 1-.283.038c-.057 0-.076.028-.076.056 0 .057.047.076.151.076.283 0 .877-.029.924-.029.047 0 .642.029 1.16.029.104 0 .151-.029.151-.076 0-.028-.019-.056-.075-.056-.085 0-.293-.019-.425-.038-.283-.037-.34-.244-.367-.517-.048-.395-.048-1.137-.048-2.04v-1.654M22 48.675c0 1.692 1.075 3.695 3.659 3.695 2.273 0 3.763-1.74 3.763-3.845 0-2.19-1.585-3.525-3.706-3.525C23.113 45 22 47.153 22 48.675zm.896-.263c0-2.058 1.179-3.092 2.754-3.092 1.49 0 2.867 1.212 2.867 3.468 0 2.736-1.755 3.225-2.603 3.225-1.698 0-3.018-1.41-3.018-3.6zM34.452 45.536l1.186.019c.903.019 1.13.235 1.157.517l.01.103c.01.132.029.16.077.16.038 0 .068-.038.068-.122 0-.104.028-.752.028-1.034 0-.057 0-.113-.048-.113-.038 0-.125.028-.267.047-.15.028-.367.047-.668.047h-3.533c-.113 0-.472-.019-.745-.047-.255-.019-.35-.113-.415-.113-.038 0-.076.122-.095.179-.018.075-.207.883-.207.977 0 .057.019.085.047.085.038 0 .066-.019.094-.094.029-.066.057-.132.16-.291.152-.226.378-.292.963-.301l1.395-.02v3.977c0 .903 0 1.645-.047 2.04-.037.272-.085.48-.273.517a1.46 1.46 0 0 1-.283.037c-.057 0-.076.029-.076.057 0 .056.048.075.151.075.283 0 .877-.028.924-.028.048 0 .641.028 1.159.028.104 0 .15-.028.15-.075 0-.028-.018-.057-.075-.057-.084 0-.292-.018-.423-.037-.283-.038-.34-.245-.367-.517-.047-.395-.047-1.137-.047-2.04v-3.976M38.82 49.456c0 .902 0 1.645-.047 2.04-.037.272-.085.479-.273.516a1.462 1.462 0 0 1-.283.038c-.057 0-.076.028-.076.056 0 .057.047.076.151.076.142 0 .359-.019.547-.019.198-.01.359-.01.378-.01.141 0 .367.01.735.029.368.009.887.028 1.594.028.368 0 .443 0 .51-.245.046-.197.121-.836.121-.911 0-.066 0-.141-.056-.141-.047 0-.066.037-.085.14-.066.386-.179.574-.424.677-.245.104-.66.104-.905.104-.925 0-1.066-.122-1.095-.771-.009-.197 0-1.288 0-1.607v-.828c0-.037.02-.065.067-.065.16 0 1.093.018 1.348.047.368.037.453.197.49.329a.956.956 0 0 1 .038.31c0 .047.02.084.066.084.066 0 .066-.103.066-.178 0-.066.019-.414.038-.602.028-.31.075-.47.075-.526 0-.057-.018-.075-.047-.075-.037 0-.075.047-.141.122-.085.094-.217.113-.443.131-.217.02-1.377.02-1.5.02-.047 0-.057-.029-.057-.095v-2.594c0-.066.02-.094.057-.094.104 0 1.132.01 1.292.028.51.056.603.17.67.32.047.113.056.272.056.338 0 .075.019.122.076.122.037 0 .056-.056.066-.103.018-.113.037-.527.047-.62.028-.264.075-.376.075-.442 0-.047-.01-.085-.037-.085-.048 0-.085.038-.132.047a2.555 2.555 0 0 1-.406.047c-.217.01-2.093.01-2.16.01l-.386-.02c-.208-.009-.462-.009-.68-.009-.103 0-.15.019-.15.076 0 .037.038.056.075.056.085 0 .246.01.321.028.311.066.387.216.405.536.02.3.02.564.02 2.03v1.655M44.613 47.726c0-1.466 0-1.73.018-2.03.02-.33.095-.49.368-.536.113-.019.245-.028.311-.028.038 0 .076-.02.076-.057 0-.056-.047-.075-.151-.075-.283 0-.971.028-1.018.028-.048 0-.642-.028-1.066-.028-.104 0-.151.019-.151.075 0 .038.038.057.075.057.085 0 .246.009.321.028.311.066.387.216.406.536.018.3.018.564.018 2.03v1.654c0 .903 0 1.645-.047 2.04-.037.273-.085.48-.273.517a1.46 1.46 0 0 1-.283.038c-.057 0-.076.028-.076.056 0 .057.048.076.151.076.142 0 .35-.01.538-.02.188 0 .349-.009.387-.009.273 0 .565.01.961.029.397.009.887.028 1.566.028.5 0 .528-.038.594-.254.075-.273.141-.837.141-.94 0-.104-.009-.141-.056-.141-.057 0-.076.047-.085.122a1.307 1.307 0 0 1-.245.564c-.227.273-.641.282-1.141.282-.736 0-.981-.066-1.132-.216-.17-.17-.207-.771-.207-2.153v-1.673M50.405 52.37c.51 0 1.019-.113 1.424-.395.65-.46.802-1.175.802-1.56 0-.752-.265-1.335-1.377-2.21L50.99 48c-.906-.705-1.15-1.044-1.15-1.58 0-.686.509-1.09 1.16-1.09.867 0 1.121.395 1.178.498.057.104.113.357.123.47.01.075.019.122.075.122.047 0 .066-.065.066-.216 0-.639.038-.95.038-.996 0-.047-.019-.066-.095-.066-.075 0-.15-.01-.33-.047a3.668 3.668 0 0 0-.877-.094c-1.197 0-1.952.686-1.952 1.692 0 .64.227 1.222 1.226 2.04l.425.348c.81.667 1.084 1.043 1.084 1.692 0 .601-.443 1.25-1.348 1.25-.632 0-1.255-.263-1.396-.959-.028-.132-.028-.263-.028-.348 0-.075-.01-.103-.066-.103-.048 0-.066.047-.076.15-.01.15-.047.527-.047.997 0 .254.01.291.141.357.387.188.82.254 1.264.254M59.292 52.37c1.395 0 2.14-.8 2.357-1.016 1.038.818 1.264.884 1.962.884h.924c.085 0 .16-.028.16-.066 0-.056-.047-.066-.132-.066-.34 0-.82-.188-1.122-.366-.264-.15-.679-.404-1.301-.93.415-.508.933-1.458.933-2.219 0-.094-.028-.17-.17-.188a10.657 10.657 0 0 0-1.131-.066c-.076 0-.151.019-.151.066s.056.066.113.066c.142 0 .34.028.462.15.142.141.18.32.18.46 0 .574-.218 1.204-.482 1.561-.301-.254-1.461-1.335-1.782-1.682-.98-1.063-1.49-1.674-1.49-2.407 0-.884.632-1.231 1.198-1.231.415 0 .735.197.943.413.235.245.292.555.292.8 0 .14.01.178.057.178.038 0 .066-.019.094-.16.028-.141.066-.799.066-1.08 0-.114-.01-.17-.122-.236-.255-.141-.66-.235-1.142-.235-1.263 0-2.027.987-2.027 1.73 0 .423.113.808.462 1.297-.736.432-1.443 1.165-1.443 2.265 0 .818.641 2.078 2.292 2.078zm.33-.498c-1.057 0-1.886-.847-1.886-2.022 0-.751.358-1.259.848-1.579.264.386.868 1.053 1.113 1.316a26.04 26.04 0 0 0 1.707 1.589c-.32.329-.905.696-1.782.696zM68.82 49.38c0 .903 0 1.645-.047 2.04-.037.273-.085.48-.273.517a1.46 1.46 0 0 1-.283.038c-.057 0-.076.028-.076.056 0 .057.047.076.151.076.283 0 .877-.029.887-.029.047 0 .641.029 1.16.029.103 0 .15-.029.15-.076 0-.028-.018-.056-.075-.056-.085 0-.292-.019-.424-.038-.283-.037-.34-.244-.368-.517-.047-.395-.047-1.137-.047-2.04v-.225c0-.047.019-.075.066-.075l1.16.018c.056 0 .085.02.122.057.189.244.632.874 1.028 1.391.538.705.868 1.166 1.273 1.382.246.131.481.179 1.01.179h.67c.169 0 .225-.02.225-.076 0-.028-.037-.056-.084-.056-.057 0-.19 0-.368-.028-.236-.038-.642-.141-1.15-.677-.548-.583-1.189-1.42-1.963-2.406.85-.78 1.142-1.476 1.142-2.172 0-.649-.415-1.109-.65-1.278-.5-.357-1.133-.414-1.727-.414-.292 0-1.009.028-1.112.028-.048 0-.642-.028-1.066-.028-.104 0-.151.019-.151.075 0 .038.038.057.075.057.085 0 .246.009.321.028.311.066.387.216.406.536.018.3.018.564.018 2.03v1.654zm.755-3.91c0-.056.028-.094.075-.113.095-.028.35-.056.632-.056 1.01 0 1.632.705 1.632 1.88 0 .714-.246 1.222-.576 1.447-.217.15-.48.179-.707.179-.415 0-.849-.066-.99-.15a.123.123 0 0 1-.066-.113V45.47zM75.82 49.456c0 .902 0 1.645-.047 2.04-.037.272-.085.479-.273.516a1.46 1.46 0 0 1-.283.038c-.057 0-.076.028-.076.056 0 .057.048.076.151.076.142 0 .359-.019.547-.019.198-.01.359-.01.378-.01.141 0 .367.01.735.029.368.009.887.028 1.594.028.368 0 .443 0 .51-.245.046-.197.122-.836.122-.911 0-.066 0-.141-.057-.141-.047 0-.066.037-.085.14-.066.386-.179.574-.424.677-.245.104-.66.104-.905.104-.925 0-1.066-.122-1.094-.771-.01-.197 0-1.288 0-1.607v-.828c0-.037.019-.065.066-.065.16 0 1.094.018 1.348.047.368.037.453.197.49.329a.956.956 0 0 1 .038.31c0 .047.02.084.066.084.066 0 .066-.103.066-.178 0-.066.02-.414.038-.602.028-.31.075-.47.075-.526 0-.057-.018-.075-.047-.075-.037 0-.075.047-.141.122-.085.094-.217.113-.443.131-.217.02-1.377.02-1.5.02-.047 0-.056-.029-.056-.095v-2.594c0-.066.019-.094.056-.094.104 0 1.132.01 1.292.028.51.056.604.17.67.32.047.113.056.272.056.338 0 .075.02.122.076.122.037 0 .056-.056.066-.103.019-.113.038-.527.047-.62.028-.264.075-.376.075-.442 0-.047-.01-.085-.037-.085-.047 0-.085.038-.132.047a2.552 2.552 0 0 1-.406.047c-.217.01-2.093.01-2.16.01l-.386-.02c-.208-.009-.462-.009-.68-.009-.103 0-.15.019-.15.076 0 .037.038.056.075.056.085 0 .246.01.321.028.311.066.387.216.406.536.018.3.018.564.018 2.03v1.655M82.405 52.37c.51 0 1.019-.113 1.424-.395.65-.46.802-1.175.802-1.56 0-.752-.265-1.335-1.377-2.21L82.99 48c-.906-.705-1.15-1.044-1.15-1.58 0-.686.509-1.09 1.16-1.09.867 0 1.121.395 1.178.498.057.104.113.357.123.47.009.075.019.122.075.122.047 0 .066-.065.066-.216 0-.639.038-.95.038-.996 0-.047-.019-.066-.095-.066-.075 0-.15-.01-.33-.047a3.67 3.67 0 0 0-.877-.094c-1.197 0-1.952.686-1.952 1.692 0 .64.227 1.222 1.226 2.04l.425.348c.81.667 1.084 1.043 1.084 1.692 0 .601-.443 1.25-1.348 1.25-.632 0-1.255-.263-1.396-.959-.028-.132-.028-.263-.028-.348 0-.075-.01-.103-.067-.103-.047 0-.066.047-.075.15-.01.15-.047.527-.047.997 0 .254.01.291.141.357.387.188.82.254 1.264.254M85 48.675c0 1.692 1.075 3.695 3.659 3.695 2.273 0 3.763-1.74 3.763-3.845 0-2.19-1.585-3.525-3.706-3.525C86.113 45 85 47.153 85 48.675zm.896-.263c0-2.058 1.179-3.092 2.754-3.092 1.49 0 2.866 1.212 2.866 3.468 0 2.736-1.754 3.225-2.602 3.225-1.698 0-3.018-1.41-3.018-3.6zM94.82 49.38c0 .903 0 1.645-.047 2.04-.037.273-.085.48-.273.517a1.458 1.458 0 0 1-.283.038c-.057 0-.076.028-.076.056 0 .057.047.076.151.076.283 0 .877-.029.887-.029.047 0 .64.029 1.16.029.103 0 .15-.029.15-.076 0-.028-.018-.056-.075-.056-.085 0-.292-.019-.424-.038-.283-.037-.34-.244-.368-.517-.047-.395-.047-1.137-.047-2.04v-.225c0-.047.019-.075.066-.075l1.16.018c.056 0 .085.02.122.057.189.244.632.874 1.028 1.391.538.705.868 1.166 1.273 1.382.246.131.481.179 1.01.179h.669c.17 0 .226-.02.226-.076 0-.028-.037-.056-.085-.056-.056 0-.188 0-.367-.028-.236-.038-.642-.141-1.15-.677-.548-.583-1.19-1.42-1.963-2.406.85-.78 1.142-1.476 1.142-2.172 0-.649-.415-1.109-.651-1.278-.5-.357-1.132-.414-1.726-.414-.292 0-1.009.028-1.112.028-.048 0-.642-.028-1.066-.028-.104 0-.151.019-.151.075 0 .038.038.057.075.057.085 0 .246.009.32.028.312.066.388.216.406.536.02.3.02.564.02 2.03v1.654zm.755-3.91c0-.056.028-.094.075-.113.095-.028.349-.056.632-.056 1.01 0 1.631.705 1.631 1.88 0 .714-.245 1.222-.575 1.447-.217.15-.48.179-.707.179-.415 0-.849-.066-.99-.15a.123.123 0 0 1-.066-.113V45.47zM103.452 45.536l1.186.019c.903.019 1.13.235 1.157.517l.01.103c.01.132.029.16.077.16.039 0 .068-.038.068-.122 0-.104.029-.752.029-1.034 0-.057 0-.113-.049-.113-.038 0-.125.028-.266.047-.15.028-.367.047-.668.047h-3.534c-.113 0-.472-.019-.745-.047-.255-.019-.349-.113-.415-.113-.038 0-.075.122-.094.179-.02.075-.208.883-.208.977 0 .057.019.085.047.085.038 0 .066-.019.094-.094.029-.066.057-.132.161-.291.15-.226.377-.292.962-.301l1.396-.02v3.977c0 .903 0 1.645-.048 2.04-.037.272-.084.48-.273.517a1.456 1.456 0 0 1-.283.037c-.057 0-.075.029-.075.057 0 .056.047.075.15.075.283 0 .878-.028.925-.028.047 0 .64.028 1.158.028.104 0 .15-.028.15-.075 0-.028-.018-.057-.075-.057-.084 0-.291-.018-.423-.037-.283-.038-.339-.245-.367-.517-.047-.395-.047-1.137-.047-2.04v-3.976M108.405 52.37c.51 0 1.019-.113 1.424-.395.651-.46.802-1.175.802-1.56 0-.752-.264-1.335-1.377-2.21L108.99 48c-.905-.705-1.15-1.044-1.15-1.58 0-.686.509-1.09 1.16-1.09.867 0 1.121.395 1.178.498.057.104.113.357.123.47.01.075.019.122.075.122.047 0 .066-.065.066-.216 0-.639.038-.95.038-.996 0-.047-.019-.066-.094-.066-.076 0-.151-.01-.33-.047a3.67 3.67 0 0 0-.877-.094c-1.198 0-1.952.686-1.952 1.692 0 .64.226 1.222 1.225 2.04l.425.348c.81.667 1.084 1.043 1.084 1.692 0 .601-.443 1.25-1.348 1.25-.632 0-1.255-.263-1.396-.959-.028-.132-.028-.263-.028-.348 0-.075-.01-.103-.066-.103-.048 0-.066.047-.076.15-.01.15-.047.527-.047.997 0 .254.01.291.141.357.387.188.821.254 1.264.254"/>
    </g>
</svg>
