<svg xmlns="http://www.w3.org/2000/svg" width="24" height="24" viewBox="0 0 24 24">
    <path fill="#000" fill-rule="nonzero" d="M20 15.75v1.367h-1.67V19h-1.434v-1.883H7.104V19H5.671v-1.883H4V15.75h16zM17.512 6l.72.702v5.02L20 14.45H4l1.768-2.729v-5.02L6.488 6h11.024zm-.72 1.403H7.208v3.503c.928-.234 2.53-.523 4.792-.523s3.864.289 4.792.523V7.403zm-6.712.547c.884 0 1.6.364 1.6.814v.757s-1.024.056-1.608.107c-.648.056-1.592.272-1.592.272V8.764c0-.45.716-.814 1.6-.814zm3.84 0c.884 0 1.6.364 1.6.814V9.9s-.944-.216-1.592-.272c-.584-.05-1.608-.107-1.608-.107v-.757c0-.45.716-.814 1.6-.814z"/>
</svg>
