<svg xmlns="http://www.w3.org/2000/svg" width="24" height="24" viewBox="0 0 24 24">
    <path fill="#000000" fill-rule="nonzero" d="M6 15.5c0 .66.293 1.253.75 1.665V18.5c0 .413.338.75.75.75h.75c.412 0 .75-.337.75-.75v-.75h6v.75c0 .413.338.75.75.75h.75c.413 0 .75-.337.75-.75v-1.335A2.24 2.24 0 0 0 18 15.5V8c0-2.625-2.685-3-6-3s-6 .375-6 3v7.5zm2.625.75A1.123 1.123 0 0 1 7.5 15.125c0-.623.502-1.125 1.125-1.125s1.125.502 1.125 1.125-.502 1.125-1.125 1.125zm6.75 0a1.123 1.123 0 0 1-1.125-1.125c0-.623.502-1.125 1.125-1.125s1.125.502 1.125 1.125-.502 1.125-1.125 1.125zm1.125-4.5h-9V8h9v3.75z"/>
</svg>
